# ProBuilder 4.5.2
# https://unity3d.com/unity/features/worldbuilding/probuilder
# 09/02/2022 17:18:44

mtllib ./Cube_(14).mtl
o Cube (14)

g Cube (14)
v -4.75 1.625 7.625
v -7 1.625 7.625
v -4.75 1.75 7.625
v -7 1.75 7.625
v -7.7501 1.625 7.625
v -7.7501 1.625 6.625
v -7.7501 1.75 7.625
v -7.7501 1.75 6.625
v -7 1.625 6.625
v -4.75 1.625 6.625
v -7 1.75 6.625
v -4.75 1.75 6.625
v -7 1.625 4.75
v -7 1.75 4.75
v -7.7501 1.625 4.75
v -7.7501 1.75 4.75

vt 0 0.5
vt -2.25 0.5
vt 0 0.625
vt -2.25 0.625
vt -1 0.5
vt -1 0.625
vt 2.25 0.5
vt 2.25 0.625
vt 1 0.5
vt 1 0.625
vt 0 0
vt 2.25 0
vt 0 -1
vt 2.25 -1
vt -2.25 -1
vt -2.25 0
vt -3.0001 0
vt -3.0001 -1
vt -3.0001 0.625
vt -3.0001 0.5
vt 3.0001 0.5
vt 3.0001 0.625
vt 3.0001 -1
vt 3.0001 0
vt 2.875 0.5
vt 2.875 0.625
vt -3.0001 -2.875
vt -2.25 -2.875
vt 2.25 -2.875
vt 3.0001 -2.875
vt -2.875 0.625
vt -2.875 0.5

vn 0 0 1
vn -1 0 0
vn 0 0 -1
vn 1 0 0
vn 0 1 0
vn 0 -1 0

usemtl ProBuilderDefault
f 3/3/1 4/4/1 2/2/1 1/1/1
f 7/3/2 8/6/2 6/5/2 5/1/2
f 11/8/3 12/3/3 10/1/3 9/7/3
f 12/10/4 3/3/4 1/1/4 10/9/4
f 12/13/5 11/14/5 4/12/5 3/11/5
f 1/11/6 2/16/6 9/15/6 10/13/6
f 5/17/6 6/18/6 9/15/6 2/16/6
f 7/19/1 5/20/1 2/2/1 4/4/1
f 15/21/3 16/22/3 14/8/3 13/7/3
f 8/23/5 7/24/5 4/12/5 11/14/5
f 13/25/4 14/26/4 11/10/4 9/9/4
f 15/27/6 13/28/6 9/15/6 6/18/6
f 14/29/5 16/30/5 8/23/5 11/14/5
f 16/31/2 15/32/2 6/5/2 8/6/2

