<svg xmlns="http://www.w3.org/2000/svg" width="1000" height="1000" viewBox="0 0 1000 1000">
  <defs>
    <style>
      .cls-1 {
        fill: #1e1c1d;
        fill-rule: evenodd;
      }
    </style>
  </defs>
  <path id="Preenchimento_de_Cor_2" data-name="Preenchimento de Cor 2" class="cls-1" d="M714,261c23.585-.725,36.346-12.447,54-18l32-2c6.226-1.916,11.463-9,21-7,20.921,4.38,32.443,18.69,48,27,2.327-9.326,9.445-16.067,20-17,22.318,6.866,36.363,38.192,27,71l-18,7c-3.312-2.383-4.048-3.787-9-5-6.073,13.819-5.072,27.62-12,39-34.261,56.276-111.813,63.364-203,63,0.592,36.161-1.389,70.329-12,96-6.128,14.825-17.244,25.313-22,42,41.133,0.4,90.839,54.691,103,85,3.918,9.764,2.778,22.577,7,31,24.838,49.554,106.2,118.22,52,194-6.673,9.331-22.208,24.6-34,28H753l-24,26-18,2c-49.236,10.543-63.389,2.142-96-21l-31-20c-42.179-33.674-71.446-96.558-93-150q-9-38-18-76l-16,2c1.328,63.852-49.325,184.361-93,201l-57,1c-15.6,20.91-60.987,32.224-86,12-25.248-20.413-28-67.313-28-113V729c10.92-42.079,24.4-79.83,48-109,9.168-11.33,53.235-29.744,56-39-10.556-30.45-45.407-60.978-27-105,5.133-12.275,15.428-21.1,23-31-3.6-30.766-33.623-35.917-35-74,8.729-8.13,15.319-26.106,36-16,2.454,4.619,9.154,5.93,11,10v12c2.048,8.073,23.539,51.812,29,55l34,6c25.136,10.261,39.578,49.987,42,83,26.967-2.284,62.344-4.955,95-5-1.285-69.161,26.829-102.238,56-140q-0.5-1-1-2c-55.19.331-90.147-43.983-104-85-4.76-14.094-.427-31.583-3-49-9.42-63.779,10.726-119.011,46-142,20.923-13.637,48.612-6.487,79-6l35-6c11.611,2.445,21.537,12.775,30,19C688.279,138.305,714.557,181.363,714,261ZM535,102l-29,13c-25.621,16.747-33.078,58.377-39,95-11.551,71.429,27.643,127.045,74,143,14.176,4.879,50.246,13.194,67,4,2.6-13.395,18.476-41.373,18-49q-9-42.495-18-85C595.025,169.757,601.25,101.608,535,102Zm59,1-8,3,23,41c17.567,41.921,21.5,101.241,29,150h1l33-20c8.838-3.725,16.833-4.66,24-9C697.341,186.561,670.354,105.812,594,103ZM797,254l-34,9c-42.737,13.156-92.841,24.74-121,53-12.308,12.352-28.671,38.69-14,60,16.672,24.216,52.748,24.006,94,24,68.722-.01,120.925-15.6,145-60,18.742-34.565-9.942-79.117-36-86H797ZM281,367l-4,5c-0.112,39.8,40.5,43.247,34,81-12.264,13.594-23.985,20.182-28,43-5.579,31.7,33.863,99.376,59,82,12.909-51.524,26.936-30,54-56-0.668-31.859-16.817-61.484-40-71-15.44-6.338-32.466-4.07-41-17C303.212,416.139,301.518,375.249,281,367Zm322,8-35,17c-25.119,19.478-67.106,122.533-37,163h40l31,15,2,1,20-20c16-39.76,42.84-75.582,35-136l-25-15-24-25h-7ZM467,532c-35.491,12.906-85.731-4.257-105,27-38.954,63.189,54.77,94.5,113,82,0.128-34.113,23.754-61.157,44-76l-15-33H467Zm74,37c-114.643,67.517,9.243,263.353,71,311,22.571,17.414,71.24,49.583,109,26,22.968-14.345,22.73-71.568,7-95-20.823-31.018-53.945-58.764-69-95q-5.5-23.5-11-47C632.653,619.808,605.795,568.591,541,569Zm86,2-14,9v3c23.535,18.132,40.228,53.757,50,85l11,48c27.357,59.833,81.258,69.467,81,164h1c28.158-11.042,59.339-49.666,46-94-11.394-37.869-38.251-62.492-57-93C715.536,645.056,704.149,570.47,627,571ZM317,596c-17.437,9.811-36.593,10.6-51,22-34.894,27.614-49.789,88.487-59,141-6.035,34.409,14.928,96.976,34,105,17.655,7.428,44.187-1.4,52-11,19.9-24.454,22.439-62.844,34-96,13.031-37.374,33.835-73.451,41-115-14.419-12.813-22.74-22.234-28-45Zm67,52c-23.736,61.98-41.856,132.388-67,195,78.632,13.9,91.69-60.047,109-117,6.17-20.3,18.9-41.97,14-69Z"/>
</svg>
