<svg xmlns="http://www.w3.org/2000/svg" width="512" height="512" viewBox="0 0 512 512">
  <defs>
    <style>
      .cls-1 {
        fill: #1e1c1d;
        fill-rule: evenodd;
      }
    </style>
  </defs>
  <path id="Preenchimento_de_Cor_1" data-name="Preenchimento de Cor 1" class="cls-1" d="M1,77c28.4,7.113,61.219,3.291,87,11,76.273,22.806,124.15,71.644,155,140l3-1,4-3-7-21,7-14c-4.025-20.614-56.564-37.5-55-66,6.918-15.247,23.225-22.543,39-12l4,9c-2.138,8.919-8.406,6.1-12,1l4-6c-9.8-13.369-31.426-.261-31,16,4.843,9.2,47.427,50.343,57,58l3-2c10.266-21.775,37.672-37.248,54-54,0.476-15.914-9.148-23.546-25-23l-6,5c4.137,4.428,4.229,5.677,1,11-4.513-.215-5.391-0.708-8-2l-1-3c8.685-24.408,43.353-16.812,44,10-14.051,24.022-40.645,37.494-57,60,9.149,13.219.085,19.569-2,33l13,3c18.08-65.21,90.623-116.769,158-135,13.648-3.693,66.1-14.468,81-9l-2,2c-8.719,20.016-27.718,33.319-36,55-17.162,44.928-4.678,90.275-33,127-10.522,13.644-25.473,16.977-41,26l11,11c6.169,13.468,13.807,23.758,17,42,11.367,64.938-64.323,111.661-116,77-52.748-35.379-10.089-122.886-42-157h-1q-7,51-14,102v-2q-7.5-49.5-15-99c-13.226,66.84,5.73,142-59,161-60.181,17.665-107.649-40.431-93-98,4.706-18.493,16-29.129,26-42-47.066-16.435-56.949-50.529-67-104l-6-46C31.618,113.765,9.41,99.6,1,77ZM37,98c6.86,11.045,15.406,21.533,20,35,15.67,45.941,3.135,88.74,31,123,6.224,7.652,25.171,25.07,40,22l34-17c22.99-8.658,49.376-10.124,77-14,0.51-29.729-16.923-44.067-31-62C172.349,139.585,115.877,98.916,37,98Zm435,4c-19.364,7.3-41.923,5.165-60,11-51.728,16.7-136.922,79.189-142,139,33.163-.034,64.292,6.88,89,17l24,13c17.07,4.542,36.626-15.517,43-24,21.608-28.759,16.5-69.515,27-112,4.5-18.2,14-29.963,22-44h-3ZM237,251l-40,10-43,17v1c24.622-.126,73.558-12.858,86-25C238.627,252.1,239.027,252.364,237,251Zm33,4c2.732,14.209,66.941,24.968,89,29C337.061,267.545,300.606,261.835,270,255Zm-35,6c-16.189,15.576-48.817,23.4-74,29l-28,1c-37.344,14.57-38.305,86.787-8,110,9.568,7.329,26.878,14.985,44,11,48.9-11.38,44.924-46.212,52-99,2.7-20.117,10.12-34.8,15-49C237.028,261.009,236.677,262.6,235,261Zm40,4c5.62,11.017,10.854,21.688,14,36,10.743,48.878-1.466,95.016,41,112,8.17,3.268,24.176,6.312,36,3l24-13c28.261-24.013,24.239-92.98-10-107l-41-4C315.058,286.053,294.562,275.23,275,265Z"/>
</svg>
