<svg xmlns="http://www.w3.org/2000/svg" width="1000" height="1000" viewBox="0 0 1000 1000">
  <defs>
    <style>
      .cls-1 {
        fill-rule: evenodd;
      }
    </style>
  </defs>
  <path id="Preenchimento_de_Cor_1" data-name="Preenchimento de Cor 1" class="cls-1" d="M263,41c96.369-1.739,150.313,25.712,202,67,11.321,9.044,27.734,21.429,34,35,1.923-1.392.6-.1,2-2l32-33c33.785-26.948,71.377-48.633,120-61,54.705-13.913,122.857-2.992,164,14,106.936,44.165,201.65,160.549,168,327C941.357,603.892,813.024,738.529,666,851a1376.83,1376.83,0,0,1-132,89c-10.514,6.283-22.131,16.956-36,19l-48-27-90-60C230.04,779.238,112.719,660.777,48,503-3.891,376.5-6.241,240.755,72,141c31.271-39.869,79.167-72.122,133-89Zm19,91-47,7c-48.063,14.755-85.614,45.482-109,85-32.722,55.3-26,151.625-4,214,49.63,140.737,140.378,241.448,248,324,33.457,25.663,66.317,50.944,103,74,8.869,5.574,17.112,14.83,29,17l38-24,77-55c106.758-80.5,203.554-183.579,256-318,42.525-108.994,31.06-229.634-49-288-64.236-46.83-159.506-45.107-222,2-29.228,22.032-51.329,75.1-110,65-48.427-8.335-51.815-30.524-81-54C377.347,153.93,341.714,133.688,282,132Z"/>
</svg>
