<svg xmlns="http://www.w3.org/2000/svg" width="800" height="595" viewBox="0 0 800 595">
  <defs>
    <style>
      .cls-1 {
        fill: #171717;
        fill-rule: evenodd;
      }
    </style>
  </defs>
  <path id="Preenchimento_de_Cor_1" data-name="Preenchimento de Cor 1" class="cls-1" d="M403,49h6v1l-2,2c-12.918,31.469-29.231,50.4-38,92-27.376,129.876,77.656,227.333,168,250,32.7,8.2,69.468,1.534,101-1-65.451,131.127-279.518,162.364-378,39-17.1-21.42-32.234-45.314-43-73C167.063,230.583,248.474,119.317,326,74,348.866,60.634,376.239,60.7,403,49Zm-58,52c-52.84,40.328-86.02,60.187-105,136-29.846,119.215,60.277,210.241,141,235,66.5,20.395,154.581-3.362,185-42-117.388,1.241-205.791-105.22-228-203-6.348-27.947-5.361-67.585,1-94C340.951,124.9,347.081,103.663,345,101Z"/>
</svg>
