<svg xmlns="http://www.w3.org/2000/svg" width="1000" height="1000" viewBox="0 0 1000 1000">
  <defs>
    <style>
      .cls-1 {
        fill: #1e1c1d;
        fill-rule: evenodd;
      }
    </style>
  </defs>
  <path id="Preenchimento_de_Cor_1" data-name="Preenchimento de Cor 1" class="cls-1" d="M630,469l14,65q8,48.995,16,98c29.484,164.557-12.188,325.694-150,348-56.322,9.116-99.212-27.925-121-56-49.27-63.487-69.018-179.632-49-292q8-48.995,16-98l14-65c-85.951,1.612-189.77-25.7-239-63-19.538-14.8-42.354-41.59-34-80,12.113-55.695,49.727-98.151,80-137C232.385,117.924,303.839,61.181,401,32c24.609-7.391,50.883-8.314,79-13,43.633-7.273,91.065,5.446,122,15C713.907,68.56,785.5,135.473,847,220c20.675,28.417,70.357,92.3,54,144C878.232,435.961,728.008,469.177,630,469ZM491,39l-38,3c-25.663,4.8-50.644,9.291-73,18-92.725,36.123-157.415,97.781-211,173-20.056,28.153-74.072,96.05-42,142,24.814,35.551,78.307,46.02,127,58,122.36,30.1,351.079,30.74,477,3,50.77-11.185,109.484-20.567,137-55,39.364-49.26-13.1-114.557-37-148C759.274,132.631,662.19,38.641,491,39ZM392,471c-15.54,41.582-17.737,89.54-27,137-30.267,155.074-10.695,329.692,129,352,47.323,7.557,84.792-26.849,103-51,58.618-77.749,57.319-216.736,33-333-7.525-35.974-9.633-73.232-22-105C539.382,474.18,460.618,474.2,392,471Z"/>
</svg>
