<svg xmlns="http://www.w3.org/2000/svg" width="1000" height="1000" viewBox="0 0 1000 1000">
  <defs>
    <style>
      .cls-1 {
        fill-rule: evenodd;
      }
    </style>
  </defs>
  <path id="Preenchimento_de_Cor_1" data-name="Preenchimento de Cor 1" class="cls-1" d="M634,744c0.082,37.831-4.409,71.675-19,95-14.81,23.675-58.054,31.6-84,44-58.575,27.994-114.542,67.452-185,83-24.56,5.42-148.606,11.938-159,3-24.343-20.933-14.128-87.715-7-124,6.1-31.058-13.933-57.334-21-80-4.856-15.575-.718-32.942-4-44-4.91-16.543,7.757-46.33,3-54l-8-10c5.854-16.852,24.932-58.562,20-66-18.624-7.138-31.219,10.032-47,7-68.747-21.027-25.661-110.5-17-162,7.415-44.084-11.346-79.02,4-114,3.8-8.664,11.822-14.6,16-22,13.659-24.2,16.46-53.7,25-82,6.78-22.468,18.38-43.709,31-61C230.854,90.067,325.2,66.978,419,45c47.894-11.222,124.187-25.839,178-10C750.1,80.062,849.682,148.994,897,299c51.812,164.253-20.13,310.136-102,392-15.556,15.555-33.616,36.015-54,46C713.545,750.448,669.673,744.38,634,744ZM535,37l-43,3L424,51C263.578,89.187,173.137,120.627,139,288c5.83-1.616,6.916-3.629,13-3q0.5,2,1,4l-3,4c-60.637,21.275-26.648,92.141-37,156-4.861,29.988-16.07,46.555-21,77-5.506,34,13.2,54.366,33,64,10.048-4.209,27.455-14.866,40-11l16,9c4.85-11.382,24.876-54.392,6-68-23.971-13.9-48.85,12.975-65,18l3-6c19.4-8.15,39.954-25.074,68-14l3,19c3.891-.935,4.854-0.53,8,1,0.671,53.489-39.492,69.943-44,118l7,7c7.057-1.8,25.031-1.071,28-2,4.829-1.51,5.18-7.012,14-7l16,5,12-6c10.532-2.364,18.891,5.042,23,3,28.572-9.3,79.665-11.246,104,8,13.387-3.088,18.6.66,27,7,10.751-3.751,16.093-2.962,27,0,6.831-8.476,15-6.562,26-9l7-14c2.769-11.037-2.231-29.264,1-43q7.5-20.5,15-41c37.538,6.712,64.209-14.156,95-22,28.6-7.285,53.8,10.577,87,5l40-15c7.522-4.562,12.077-13.125,22-15l3,3c-1.622,3.2-1.849,4.189-5,6,4.785,11.61,19.262,17.075,24,30,9.289,25.343-14.57,52.673-41,45v-4h2c9.021-3.16,17.427-2.035,24-7,23.5-17.747,2.263-48.637-15-58l-19,11q-6,17.5-12,35c-6.228,19.888-10.866,47.049-15,66,15.642-4.034,22.406-6.53,37-1,4.349,14.585,5.6,30.717,19,36,14.229,5.608,29.232-5.9,37-11,26.671-17.493,65.94-31.152,78-63h4l2,2q-0.5,1.5-1,3c-12.218,14.88-22.172,29.774-39,40l-26,12c-12.139,9.444-24.64,20.9-43,24-35.485,5.991-26.437-38.193-43-42-38.154-8.77-47.243,55.618-47,91,31.8,3.077,74.766,6.466,101-5,25.1-10.969,51.4-40.344,68-61,60.545-75.338,128.361-185.139,94-332C867.467,206.5,769,82.023,637,56v1l5,5,5,8-5,4,1,2c18.626,7.22,41.186,30.118,45,52l-18,3c2.919,9.642,17.867,24.268,27,28l-10,30c6.311,4.974,12.42,5.116,17,12q-0.5,1-1,2c-9.539,3.5-19.333,15.3-25,23q0.5,1,1,2c6.687,3.1,9.754,8.044,18,10q-0.5,1-1,2c-15.267,8.24-25.662,22.036-47,25v1l10,21-39,8-10-20-20,14h-1c0.12-6.78-.876-13.388-4-17l-37,16c1.591,29.368,26.584,43.482,33,72,8.8,39.127-35.492,77.676-2,103,25.908,19.59,74.014,13.475,104,29v5h-2c-8.18,2.824-23.145-3.884-31-6-36.442-9.817-84.1-8.045-92-46-6.939-33.322,21.371-43.044,16-75-7.547-44.9-66.692-88.248-6-123l5,2v4c-7.767,5.572-22.714,18.849-22,29l37-15q2.5,7,5,14l19-12c5.417,21.163,18.283,25.225,40,16-1.429-8.977-5.682-15.9-10-22,17.9-1.54,37.954-11.9,47-23l-2-3c-6.5-2.268-15.714-9.108-15-13,10.661-4.033,18.691-16.8,27-24q-0.5-1-1-2l-16-5v-1c4.3-9.542,8.948-19.611,10-32-11.283-5.251-23.764-21.28-31-31,8.3,0.319,19.166-1.65,22-7-8.794-18.289-27.258-39.056-47-46,1.62-4.527,3.205-4.1,6-7C622.951,43.041,579.787,36.833,535,37ZM302,272l-36,5c-9.239-13.469-28.313-22.21-46-27q-0.5-2.5-1-5h1c17.775,9.764,34.024,16.685,49,28l30-5c4.817-41.582,54.32-47.01,97-52l1,4C354.92,219.131,303.654,233.062,302,272Zm99,14c70.945-1.2,118.927,20.386,133,77,4.366,17.562,3.031,39.525-5,53-14.893,24.986-96.466,52.875-141,42a120.321,120.321,0,0,1-57-32c-6.4-6.374-14.54-11.755-17-22l1-1,5,1c6.249,13.818,21.12,24.6,33,33h1v-3c-16.4-24.7-12.147-94.857,4-118,7.492-10.738,22.9-13.22,31-23-15.4,2.327-69.2,20.094-71,15a254.555,254.555,0,0,1,51-18Zm9,11c-16.4,6.289-31.078,8.745-42,20-18.175,18.73-22.7,93.969-5,117,28.867,37.563,128.367,5.125,153-15,15.824-12.928,14.53-48.039,6-67C503.785,311.51,469.43,296.035,410,297ZM193,311c36.324-.349,42.684,24.465,58,45,5.679-5.517,7.691-16.925,17-13v4c-13.764,17.7-36.327,30.864-45,50-8.393,18.517-3.225,49.286-11,66-20.72,3.961-78.676,40.509-90,10-3.905-10.194,2.3-28.4,4-39,5.8-36.249-16-88.256,8-106C149.148,316.8,174.944,319.993,193,311Zm2,8c-19.034,9.271-49.644,4.31-61,21a28.577,28.577,0,0,0-4,20c3.3,16.688,8.5,42.922,5,66q-2.5,22-5,44c1.713,3.881,3.161,5.246,7,7,9.133,2.6,66.5-18.519,70-24,6.4-14.23,1.174-34.679,5-50,5.062-20.274,18.9-28.877,32-41C234.862,342.171,222.732,320,195,319Zm57,63h3c26.364,19.253,49.1,65.6,58,101,6.332,25.17-5.171,59.371-24,65-27.058,8.089-27.665-24.774-48-26l-2,1c0.048,17-8.129,49.685-20,55v-3l9-21c-16.724-3.163-20.725-26.737-17-49q9.5-35.5,19-71c2.439-13.724-1.945-30.962,4-41C237.943,386.342,244.632,385.413,252,382ZM234,517h20c6.027,12.1,16.618,26.41,33,25,49.887-28.113-6.238-137.636-35-154-21.762,9.083-12.017,26.541-17,52-6.316,32.271-25.264,62.793-15,103l6,5C231.086,542.054,233.579,526.726,234,517Zm147-30c31.072-.759,130.942,9.932,140,24h-5c-28.994-10.862-129.24-33.8-160-13-8.944,27.543-14.159,39.876-11,76h-3c-6.411-32.834,1.895-58.4,14-82Zm198,60-26,6c4.139,23.525-3.865,49.246,11,66,34.205,0.973,51.911-33.043,41-68Zm92,1c-15.13,10.99-38.173,1.528-57,6,3.871,33.168-11.776,85.327-50,74-27.451-8.134-13.811-47.836-19-71l-2-1c-7.261,4.444-17.021,5.315-22,12-36.125,48.506,30.742,131.634-20,176a80.23,80.23,0,0,1-35,18H448c-4.5,2.051-8.288,8.9-14,11l-29,3c-5.484,2.154-9.487,8.4-17,10-9.148,1.944-17.011-3.985-23-3l-11,6c-8.855,1.825-15.268-3.369-20-4l-11,5c-14.182,2.889-17.679-7.711-25-10-6.337-1.981-10.607,3.664-14,4-11.069,1.1-8.4-10.929-25,0-7.851-5.933-35.809-4.468-42,4l-9-3c-8.865,5.707-15.108,5-26,9,0.066,17.338,9.5,25.649,7,43-5.281,36.655-22.326,114.529,10,129l81-5,73-5c61.143-17.16,112.816-50.061,165-76,29.47-14.649,76.541-23.139,93-51,16.077-27.213,9.542-66.1,16-105q0.5-16,1-32l28-68c3.843-15.412,2.2-27.712,6-41C664.289,574.993,675.855,554.331,671,548ZM508,569c-9.413,5-24.063,5.5-36,5a187.765,187.765,0,0,0-14,44q0.5,16,1,32l-8,14c-4.743,19.99,13.292,44.208-1,58l1,2,48,9c5.944-14.265,12.979-27.05,16-46q-6-34.5-12-69C500.371,602.048,512.639,575.08,508,569ZM288,720q2-31,4-62l-3-1c-28.314-18.925-39.915,34.143-34,60Zm4,1c10.285,0.594,22.513,4.127,31,0l3-2q4-28.5,8-57c-5.327-5.471-11.487-9.47-22-7l-16,5Q294,690.5,292,721Zm-55-62-11,6c-1.988,10.989-12.087,43.471-3,56l29-4v-1c-8.38-16.006,1.023-38.965,4-53l-2-2Zm-20,62a263.565,263.565,0,0,1,5-54c-5.133-3.952-6.6-6.709-16-7-3.2,1.622-4.189,1.849-6,5-7.254,11.147-13.931,40.929-9,59Zm124-61c-9.638,9.034-11.343,44.673-12,61l3,2c8.279,1.354,17.521,2.811,25,0,1.629-17.589,11.645-53.113-5-61Zm-161,5c-9.295,16.919-7.076,40.929-4,62l2,1,9-3c0.159-13.154,5-57,5-57C189.057,665.162,186.261,664.817,180,665Zm-9,3-4,3c-2.7,18.446-8.547,43.2,4,56l2-1v-1c-6.9-14.866-2.48-42.93,1-57h-3Zm198,0-5,2a323.624,323.624,0,0,1-4,54c9.367,3.174,16.086,4.061,26,1q1.5-23.5,3-47c-3.98-3.393-5.607-6.718-11-9Zm64,0c-5.438,3.374-10.2,5.035-14,10,4.1,15.288,3.7,31.34,3,45h2l13,1c1.807-6.788,6.88-7.752,11-12,0.222-11.031-.155-36.251-7-41Zm-33,5-8,6q-1,22.5-2,45l3,1c7.975,5.946,21.689,1.614,25-6,7.9-12.776.167-35.532-6-44ZM246,722c-0.009,20.515,7.006,37.409,13,53,8.025-1.294,11.444-3.042,19-1-1.979-18.406-10.469-30.74-11-52H246Zm-7,0-20,3c-0.383,19.054,9.38,42.025,20,51l15-3c-2.982-16.971-10.444-29.205-11-50Zm32,0c-3.608,15.823,7.532,41.806,13,55,6.667-2.668,11.873-2.763,19-1q-2-25.5-4-51Zm32,4q2.5,28,5,56c7.3,1.421,12.887,1.87,20,0,4.827-12.235,12.329-40.727,9-55C326.029,725.175,318.132,725.935,303,726Zm-94-1-7,1c-2.508,20.859,7.574,37.316,13,53l17-6c-8.242-13.931-15.01-27.583-17-48h-6Zm208,1-6,4c1.242,13.506-1.847,27.676-4,40h13c10.411-3.012,16.6-5.764,24-11,0.334-12.126,2.353-25.716-2-33H417Zm-219,1c-6.976-.078-9.635,1.058-14,3-0.24,22.728,8.881,35.8,14,53l13-5C204.006,763.463,198.191,748.621,198,727Zm157,0-14,3c-0.52,16.128-10.357,38.351-5,51,7.97,1.437,15.307,2.011,23,0,7.97-11.169,11.65-31.746,12-50Zm53,4c-17.228-.287-20-4.1-34,1q-3.5,22.5-7,45l2,1c16.623,4.481,24.349-.7,35-9C405.289,756.479,407.94,746.372,408,731Zm-231,0-6,2-1,1c1.657,20.265,10.909,33.835,15,51l10-1C193.148,779.064,178.576,731.974,177,731Zm276,2v21c14.373,0.464,32.044-3.925,36-14Zm-288,5c-0.631,23.189,6.173,37.46,15,51l2-1v-1C181.168,782.5,166.916,739.406,165,738Z"/>
</svg>
