<svg xmlns="http://www.w3.org/2000/svg" width="1732" height="1000" viewBox="0 0 1732 1000">
  <defs>
    <style>
      .cls-1 {
        fill: #1e1c1d;
        fill-rule: evenodd;
      }
    </style>
  </defs>
  <path id="Preenchimento_de_Cor_2" data-name="Preenchimento de Cor 2" class="cls-1" d="M1418,428h148v24H1393q0.495-33.5,1-67c64.11-2.15,106.62-46.739,122-98,27.7-92.322-53.41-188.725-145-174-57.57,9.255-96.41,39.351-115,87-35.82,91.8,36.81,182.891,119,185v67H1111c-37.14,0-81.21,6.97-91-21-19.38-55.365,57.28-45.008,99-45,15.75,0,52.51,6.462,46-13l-3-5c-62.76.06-127.7,10.477-142-39q-0.5-81.991-1-164c0-20.258,6.49-58.727-17-47q-0.5,116.488-1,233c0,26.506,6.07,72.672-6,89-10.309,13.941-32.548,12-57,12-44.72,0-151.739,11.082-164-19-28.979-71.1,101.734-38.328,144-49q0.5-1,1-2-0.5-6-1-12l-3-1c-30.062-11.375-88.376,8.752-116-7-52.493-29.932-15.173-170.936-28-243l-4-3-6-1c-2.6,1.4-3.334,1.612-5,4-7.975,13.585-2,51.646-2,70V367c0,22.171,4.563,58.018-5,72-11.688,17.09-44.4,13-73,13H550c-14.682,0-35.681,2.643-47-2-11.223-4.6-23.272-19.41-19-39,8.435-38.677,94.039-25,140-25,13.445,0,41.578,3.8,48-4l2-3c-0.415-5.638-1.129-7.786-5-10l-38-1c-54.144,0-119.218,9.1-140-25-6.9-11.318-9.391-33.1-4-48,20.226-55.9,79.767-26.5,142-37q0.5-1.5,1-3c7.313-21.292-36.048-14-53-14-51.365,0-85.134-1.342-93-44-17.548-95.16,116.678-53.112,185-65l5-7c-0.551-4.957-.873-5.791-4-8-11.012-6.609-41.66-2-57-2H466V345c0,25.857,6.933,73.9-4,92-7.058,11.682-27.4,19.8-50,15-33.169-7.05-27.006-47.306-27-87V188c0-20.36,5.276-57.513-3-72-5.938-1.292-9.987-1.342-13,3-4.367,9.152-2,28.408-2,41,0,74.327,11.887,123-66,123H255c-21.887,0-43.66,1.275-57-7-30.89-19.16-24.011-73.258-24-123V120c-3.148-8.162-12.317-3.918-17-1V347c0,26.544,6.384,73.342-5,91-7.749,12.02-20.6,14.179-41,14V428c9.82,0.4,15.716-.554,21-4V177c0-39.3-6.038-79.281,27-86,83.6-17-.927,157.769,69,169,33.517,5.383,104.471,3.588,113-17,18.161-43.837-23.482-133.626,25-150,9.472-3.2,22.8-1.9,30,3,19.006,12.918,13,56.668,13,88q0.5,119.488,1,239l5,4c8.9,2.766,20.526.559,26-3q0.5-166.483,1-333H626c33.362,0,62.959-3.3,71,22,26.526,83.477-160.926,17.083-185,57-4.191,6.949-4.723,18.721-2,27,15.8,48.029,156.964-14.195,146,57-9.679,62.853-137.149-4-148,54-15.482,82.756,217.965-15.236,189,79-13.057,42.479-134.565,15.281-185,24l-3,4q-0.5,3-1,6c1.4,2.6,1.612,3.334,4,5,12,6.448,41.834,2,58,2,44.383,0,119.795,7.323,158-2,5.7-19.418,2-50.939,2-74V180c0-40.165-6.911-82.148,27-89,38.524-7.784,39,27.972,39,61V280c0,15.782-2.627,37.756,3,49,19.521,39,166.737-21.014,144,58-9.288,32.276-63.479,23-104,23-12.415,0-35.148-3.131-41,4-1.889,3.275-1.713,4.935-1,9l5,4,126,1c16.2,0,37.825,2.155,48-4q0.5-122.988,1-246c0-39.076-6.786-80.127,26-87,39.15-8.207,40,27.709,40,61V277c0,17.534-2.9,42.573,4,54,21.71,35.938,129.69-16.614,143,37,18.06,72.783-106.65,25.447-146,45v12c21.53,9.236,65.61,3,93,3h214V406c-80.51-12.38-157.6-112.479-118-214,21.64-55.473,66.2-92.337,133-103,114.7-18.306,206.5,99.173,172,209-17.22,54.815-60.98,94.651-120,108v22ZM295,548V736c0,23.143-4.648,60.3,6,74,12.176,15.669,64.262,9,91,9,19.6,0,48.89,3.381,62-4q0.5-126.987,1-254c0-37.882-6-89.939,41-79,46.327,10.783,15.037,97.025,25,145,2.059,9.914,9.159,18.882,18,22l104,1c54.341-11.752-12.075-152.023,48-167,8.47-2.112,20.084-.725,26,3,20.745,13.062,15,55.652,15,89q0.5,120.488,1,241l3,1c6.918,3.622,22.515.935,28-3V482H949c34.562,0,64.92-3.409,71,25,17.52,81.829-164.851,11.067-187,56-42.7,86.617,160.073,3.083,145,84-11.167,59.948-139.055-6.545-148,54-11.634,78.746,221.18-16.446,189,78-13.93,40.887-135.969,14.35-186,23l-3,6c3.107,16.107,33.937,10,52,10l168-1c0.33-1,.67-2,1-3q0.495-165.984,1-332c82.47-.919,181.18-11.673,217,35,7.07,9.218,12.92,22.308,16,35,15.84,65.205-24.06,108.564-70,120-21.81,5.427-53.79,2.274-79,2q72.495,72.492,145,145c12.84,0.356,29.66.656,38-4q0.495-166.484,1-333h183c36.79,0,66.83-3.785,73,27,15.46,77.175-159.23,12.522-185,50-12.38,18-1.34,42.944,15,48,41.69,12.9,134.3-22.9,128,36-7.44,69.6-162.51-8.856-148,68,11.34,60.073,205.13-20.154,190,62-7.75,42.1-90.57,28.008-139,28-20.44,0-61.69-6.629-47,17l207,1q-0.495,12-1,24H1430c-33.52,0-62.05,2.329-68-25-16.88-77.6,148.42-20.61,189-45v-7c-1.02-4.433-.66-4.016-4-6l-40-1c-62.46,0-130.33,10.736-144-39-4.62-16.792.9-35.57,7-45,18.78-29.049,57.02-25,105-25,11.64,0,25.75,1.079,33-3,0.33-.667.67-1.333,1-2-0.33-2.666-.67-5.334-1-8-0.67-1.333-1.33-2.667-2-4-56.07-9.435-109.28,15.486-136-26-5.45-8.462-11.25-23.364-8-40l9-22c22.01-30.634,88.05-22.007,140-22,13.35,0,31.25,1.67,40-3v-7c-1.02-4.433-.66-4.016-4-6l-203-1V741c0,28.121,5.86,74.215-7,91-11.01,14.365-41.59,11.254-67,11q-63.495-63.993-127-128c-18.03-18.026-44.14-28.9-44-65,74.5,1,141.02,8.62,160-47,4.59-13.458,5.67-36.088,1-51-18.43-58.829-106.23-46.783-183-46V749c0,31.617,5.55,74.42-13,88-13.06,9.563-44.04,6-66,6H874c-15.068,0-36.258,2.664-48-2-9.194-3.652-17.8-13.446-20-24-13.959-66.963,139.907-31.025,188-42,1.973-6.282,2.085-9.783-1-15-66.663-11.065-162.661,21.327-184-35-4.591-12.119-3.272-30.354,1-41,21.557-53.721,79.553-24.643,141-35q0.5-1.5,1-3,1-3,2-6c-1.591-2.706-1.5-4.117-4-6-7.144-4.149-24.4-2-35-2-59.675,0-110.447,3.451-109-57q2.5-11.5,5-23c18.147-38.962,87.654-29.006,144-29,13.187,0,31.491,1.832,40-3q0.5-1,1-2c-0.064-6.073-.991-7.557-3-11l-205-1V737c0,25.613,6.828,73.125-4,91-6.962,11.493-26.785,19.671-49,15-34.151-7.18-27.006-47.522-27-88V580c0-21.349,4.942-57.3-3-73H695l-5,3c0.654,57.371,10.958,136.92-26,158-18.394,10.492-57.436,6-85,6-27.06,0-49.123.459-64-11-34.028-26.211-10.963-103.292-20-155l-3-1h-8l-4,2q-0.5,121.988-1,244c0,36.309,6.408,77.505-20,88-16.4,6.517-47.721,2-68,2-39.647,0-85.14,4.875-105-15-18.283-18.3-15-55.112-15-92V523c24.122,0.228,112.694,4.693,126-3,0.819-6.13.466-8.524-2-13l-207-1c-21.236,0-64.119-8.9-60,15l3,1,122,1V730c0,29.273,4.614,70.292-7,89-5.708,9.194-17.7,18.536-29,22-15.757,4.829-118.441,5.7-136,1V819c30.5,0.269,120.451,7.109,138-5,14.639-10.1,10-45.707,10-70V548c-28.248.534-98.125,5.665-114-6-14.433-10.606-16.317-42.664-1-54,13.124-9.714,44.875-6,67-6H346c27.231,0,58.489-3.886,70,12,5.355,7.39,6.691,20.16,4,30C410.237,559.706,339.383,548.786,295,548Z"/>
</svg>
