<svg xmlns="http://www.w3.org/2000/svg" width="779.69" height="999.995" viewBox="0 0 407 522">
  <defs>
    <style>
      .cls-1 {
        fill: #171717;
        fill-rule: evenodd;
      }
    </style>
  </defs>
  <path id="Preenchimento_de_Cor_1" data-name="Preenchimento de Cor 1" class="cls-1" d="M232,419H219c0.485,27.061,1.711,57.609-9,74-13.539,20.72-75.676,29.114-100,11-21.7-16.158-16.791-67.9-23-99-18.885.266-37.376-.776-48-9C11.355,374.6,3.729,242.085,21,200c10.557-25.726,35.135-35.753,64-43,5.679-66.98,43.794-115.137,99-133,49.971-16.169,121.241-4.75,145,27,11.286,15.082,13.71,36.686,22,55l28,32c20.732,30.446,15.7,85.248-16,99,1.709,71.888,20.452,183.879-16,232-7.811,10.311-20.967,12.564-36,16C258.739,496.945,231.378,470.125,232,419ZM221,42c-34.055,14.737-61.269,11.056-83,40-45.786,60.983-41.344,202.949-27,296,6.091,39.513.02,80.76,18,107,13.127,4.22,50.215,8.575,58-4q4-40.5,8-81c39.277,0.457,75.874-1.115,105-9-8.416,15.085-26.812,23.92-47,27,1.4,33.434,19.607,56.918,55,47,8.42-2.359,18.473-2.9,23-9,25.916-34.926,20.2-156.109,12-208h-1c-67.039,26.99-205.387-4.3-190-86,12.6-66.923,93.352-75.319,171-64V97C304.566,57.47,280.107,41.338,221,42Zm30,75-27,5c-24.266,9.013-64.459,34.86-41,71,25.129,38.712,144.848,61.475,179,14,9.455-13.144,2.895-35.267-3-47C340.83,123.838,306.408,115.99,251,117ZM85,388c0.072-70.173-6.184-141.205-3-212-60.589,3.411-58.732,91.186-48,148,4.025,21.31,1.21,48.8,16,59C57.811,388.384,71.824,388.283,85,388Z"/>
</svg>
